<svg width="1855pt" height="139pt" viewBox="0.00 0.00 1855.09 139.13" xmlns="http://www.w3.org/2000/svg" xmlns:xlink="http://www.w3.org/1999/xlink">
<g id="graph0" class="graph" transform="scale(1 1) rotate(0) translate(4 135.13)">
<title>finite_state_machine</title>
<polygon fill="white" stroke="none" points="-4,4 -4,-135.13 1851.09,-135.13 1851.09,4 -4,4"></polygon>
<!-- S21 -->
<g id="node1" class="node">
<title>S21</title>
<ellipse fill="none" stroke="black" cx="1817.02" cy="-30.06" rx="26.06" ry="26.06"></ellipse>
<ellipse fill="none" stroke="black" cx="1817.02" cy="-30.06" rx="30.06" ry="30.06"></ellipse>
<text text-anchor="middle" x="1817.02" y="-25.86" font-family="Times,serif" font-size="14.00">S21</text>
</g>
<!-- S0 -->
<g id="node2" class="node">
<title>S0</title>
<ellipse fill="none" stroke="black" cx="21.24" cy="-70.06" rx="21.24" ry="21.24"></ellipse>
<text text-anchor="middle" x="21.24" y="-65.86" font-family="Times,serif" font-size="14.00">S0</text>
</g>
<!-- S1 -->
<g id="node3" class="node">
<title>S1</title>
<ellipse fill="none" stroke="black" cx="105.92" cy="-70.06" rx="21.24" ry="21.24"></ellipse>
<text text-anchor="middle" x="105.92" y="-65.86" font-family="Times,serif" font-size="14.00">S1</text>
</g>
<!-- S0&#45;&gt;S1 -->
<g id="edge1" class="edge">
<title>S0-&gt;S1</title>
<path fill="none" stroke="black" d="M42.67,-70.06C51.82,-70.06 62.81,-70.06 73,-70.06"></path>
<polygon fill="black" stroke="black" points="72.92,-73.56 82.92,-70.06 72.92,-66.56 72.92,-73.56"></polygon>
<text text-anchor="middle" x="63.58" y="-74.26" font-family="Times,serif" font-size="14.00">a</text>
</g>
<!-- S2 -->
<g id="node4" class="node">
<title>S2</title>
<ellipse fill="none" stroke="black" cx="273.36" cy="-70.06" rx="21.24" ry="21.24"></ellipse>
<text text-anchor="middle" x="273.36" y="-65.86" font-family="Times,serif" font-size="14.00">S2</text>
</g>
<!-- S1&#45;&gt;S2 -->
<g id="edge2" class="edge">
<title>S1-&gt;S2</title>
<path fill="none" stroke="black" d="M127.07,-74.41C132.88,-75.48 139.25,-76.49 145.16,-77.06 184.52,-80.88 194.79,-82.14 234.13,-78.06 236.35,-77.83 238.64,-77.53 240.94,-77.18"></path>
<polygon fill="black" stroke="black" points="241.56,-80.62 250.76,-75.36 240.29,-73.74 241.56,-80.62"></polygon>
<text text-anchor="middle" x="187.89" y="-84.26" font-family="Times,serif" font-size="14.00">b|c</text>
</g>
<!-- S3 -->
<g id="node5" class="node">
<title>S3</title>
<ellipse fill="none" stroke="black" cx="187.89" cy="-41.06" rx="21.24" ry="21.24"></ellipse>
<text text-anchor="middle" x="187.89" y="-36.86" font-family="Times,serif" font-size="14.00">S3</text>
</g>
<!-- S1&#45;&gt;S3 -->
<g id="edge3" class="edge">
<title>S1-&gt;S3</title>
<path fill="none" stroke="black" d="M126.28,-63.04C135.45,-59.72 146.6,-55.67 156.83,-51.96"></path>
<polygon fill="black" stroke="black" points="157.8,-55.34 166.01,-48.64 155.42,-48.75 157.8,-55.34"></polygon>
<text text-anchor="middle" x="146.91" y="-60.26" font-family="Times,serif" font-size="14.00">.</text>
</g>
<!-- S4 -->
<g id="node6" class="node">
<title>S4</title>
<ellipse fill="none" stroke="black" cx="440.81" cy="-70.06" rx="21.24" ry="21.24"></ellipse>
<text text-anchor="middle" x="440.81" y="-65.86" font-family="Times,serif" font-size="14.00">S4</text>
</g>
<!-- S2&#45;&gt;S4 -->
<g id="edge4" class="edge">
<title>S2-&gt;S4</title>
<path fill="none" stroke="black" d="M294.51,-74.41C300.32,-75.48 306.69,-76.49 312.6,-77.06 351.96,-80.88 362.24,-82.14 401.57,-78.06 403.8,-77.83 406.08,-77.53 408.38,-77.18"></path>
<polygon fill="black" stroke="black" points="409,-80.62 418.2,-75.36 407.73,-73.74 409,-80.62"></polygon>
<text text-anchor="middle" x="355.34" y="-84.26" font-family="Times,serif" font-size="14.00">b|c</text>
</g>
<!-- S5 -->
<g id="node7" class="node">
<title>S5</title>
<ellipse fill="none" stroke="black" cx="355.34" cy="-41.06" rx="21.24" ry="21.24"></ellipse>
<text text-anchor="middle" x="355.34" y="-36.86" font-family="Times,serif" font-size="14.00">S5</text>
</g>
<!-- S2&#45;&gt;S5 -->
<g id="edge5" class="edge">
<title>S2-&gt;S5</title>
<path fill="none" stroke="black" d="M293.72,-63.04C302.89,-59.72 314.05,-55.67 324.28,-51.96"></path>
<polygon fill="black" stroke="black" points="325.25,-55.34 333.45,-48.64 322.86,-48.75 325.25,-55.34"></polygon>
<text text-anchor="middle" x="314.35" y="-60.26" font-family="Times,serif" font-size="14.00">.</text>
</g>
<!-- S3&#45;&gt;S2 -->
<g id="edge6" class="edge">
<title>S3-&gt;S2</title>
<path fill="none" stroke="black" d="M208.25,-47.79C218.29,-51.28 230.79,-55.62 242.07,-59.54"></path>
<polygon fill="black" stroke="black" points="240.8,-62.8 251.39,-62.78 243.09,-56.19 240.8,-62.8"></polygon>
<text text-anchor="middle" x="230.63" y="-61.26" font-family="Times,serif" font-size="14.00">b</text>
</g>
<!-- S6 -->
<g id="node8" class="node">
<title>S6</title>
<ellipse fill="none" stroke="black" cx="608.25" cy="-70.06" rx="21.24" ry="21.24"></ellipse>
<text text-anchor="middle" x="608.25" y="-65.86" font-family="Times,serif" font-size="14.00">S6</text>
</g>
<!-- S4&#45;&gt;S6 -->
<g id="edge7" class="edge">
<title>S4-&gt;S6</title>
<path fill="none" stroke="black" d="M461.96,-74.41C467.77,-75.48 474.13,-76.49 480.04,-77.06 519.4,-80.88 529.68,-82.14 569.01,-78.06 571.24,-77.83 573.53,-77.53 575.82,-77.18"></path>
<polygon fill="black" stroke="black" points="576.45,-80.62 585.64,-75.36 575.17,-73.74 576.45,-80.62"></polygon>
<text text-anchor="middle" x="522.78" y="-84.26" font-family="Times,serif" font-size="14.00">b|c</text>
</g>
<!-- S7 -->
<g id="node9" class="node">
<title>S7</title>
<ellipse fill="none" stroke="black" cx="522.78" cy="-41.06" rx="21.24" ry="21.24"></ellipse>
<text text-anchor="middle" x="522.78" y="-36.86" font-family="Times,serif" font-size="14.00">S7</text>
</g>
<!-- S4&#45;&gt;S7 -->
<g id="edge8" class="edge">
<title>S4-&gt;S7</title>
<path fill="none" stroke="black" d="M461.17,-63.04C470.33,-59.72 481.49,-55.67 491.72,-51.96"></path>
<polygon fill="black" stroke="black" points="492.69,-55.34 500.9,-48.64 490.3,-48.75 492.69,-55.34"></polygon>
<text text-anchor="middle" x="481.79" y="-60.26" font-family="Times,serif" font-size="14.00">.</text>
</g>
<!-- S5&#45;&gt;S4 -->
<g id="edge9" class="edge">
<title>S5-&gt;S4</title>
<path fill="none" stroke="black" d="M375.7,-47.79C385.74,-51.28 398.23,-55.62 409.52,-59.54"></path>
<polygon fill="black" stroke="black" points="408.24,-62.8 418.83,-62.78 410.54,-56.19 408.24,-62.8"></polygon>
<text text-anchor="middle" x="398.07" y="-61.26" font-family="Times,serif" font-size="14.00">b</text>
</g>
<!-- S8 -->
<g id="node10" class="node">
<title>S8</title>
<ellipse fill="none" stroke="black" cx="775.69" cy="-70.06" rx="21.24" ry="21.24"></ellipse>
<text text-anchor="middle" x="775.69" y="-65.86" font-family="Times,serif" font-size="14.00">S8</text>
</g>
<!-- S6&#45;&gt;S8 -->
<g id="edge10" class="edge">
<title>S6-&gt;S8</title>
<path fill="none" stroke="black" d="M629.4,-74.41C635.21,-75.48 641.57,-76.49 647.49,-77.06 686.85,-80.88 697.12,-82.14 736.46,-78.06 738.68,-77.83 740.97,-77.53 743.27,-77.18"></path>
<polygon fill="black" stroke="black" points="743.89,-80.62 753.09,-75.36 742.62,-73.74 743.89,-80.62"></polygon>
<text text-anchor="middle" x="690.22" y="-84.26" font-family="Times,serif" font-size="14.00">b|c</text>
</g>
<!-- S9 -->
<g id="node11" class="node">
<title>S9</title>
<ellipse fill="none" stroke="black" cx="690.22" cy="-41.06" rx="21.24" ry="21.24"></ellipse>
<text text-anchor="middle" x="690.22" y="-36.86" font-family="Times,serif" font-size="14.00">S9</text>
</g>
<!-- S6&#45;&gt;S9 -->
<g id="edge11" class="edge">
<title>S6-&gt;S9</title>
<path fill="none" stroke="black" d="M628.61,-63.04C637.77,-59.72 648.93,-55.67 659.16,-51.96"></path>
<polygon fill="black" stroke="black" points="660.13,-55.34 668.34,-48.64 657.75,-48.75 660.13,-55.34"></polygon>
<text text-anchor="middle" x="649.24" y="-60.26" font-family="Times,serif" font-size="14.00">.</text>
</g>
<!-- S7&#45;&gt;S6 -->
<g id="edge12" class="edge">
<title>S7-&gt;S6</title>
<path fill="none" stroke="black" d="M543.14,-47.79C553.18,-51.28 565.67,-55.62 576.96,-59.54"></path>
<polygon fill="black" stroke="black" points="575.68,-62.8 586.28,-62.78 577.98,-56.19 575.68,-62.8"></polygon>
<text text-anchor="middle" x="565.51" y="-61.26" font-family="Times,serif" font-size="14.00">b</text>
</g>
<!-- S8&#45;&gt;S8 -->
<g id="edge13" class="edge">
<title>S8-&gt;S8</title>
<path fill="none" stroke="black" d="M767.92,-90.25C766.84,-100.32 769.43,-109.3 775.69,-109.3 779.41,-109.3 781.83,-106.13 782.96,-101.45"></path>
<polygon fill="black" stroke="black" points="786.45,-101.91 783.4,-91.76 779.45,-101.6 786.45,-101.91"></polygon>
<text text-anchor="middle" x="775.69" y="-113.5" font-family="Times,serif" font-size="14.00">b|c</text>
</g>
<!-- S10 -->
<g id="node12" class="node">
<title>S10</title>
<ellipse fill="none" stroke="black" cx="871.88" cy="-105.06" rx="26.06" ry="26.06"></ellipse>
<text text-anchor="middle" x="871.88" y="-100.86" font-family="Times,serif" font-size="14.00">S10</text>
</g>
<!-- S8&#45;&gt;S10 -->
<g id="edge14" class="edge">
<title>S8-&gt;S10</title>
<path fill="none" stroke="black" d="M795.13,-79.4C801.33,-82.37 808.35,-85.53 814.93,-88.06 821.58,-90.63 828.8,-93.06 835.76,-95.25"></path>
<polygon fill="black" stroke="black" points="834.35,-98.48 844.94,-98.02 836.38,-91.78 834.35,-98.48"></polygon>
<text text-anchor="middle" x="821.37" y="-96.26" font-family="Times,serif" font-size="14.00">.</text>
</g>
<!-- S11 -->
<g id="node13" class="node">
<title>S11</title>
<ellipse fill="none" stroke="black" cx="871.88" cy="-30.06" rx="26.06" ry="26.06"></ellipse>
<text text-anchor="middle" x="871.88" y="-25.86" font-family="Times,serif" font-size="14.00">S11</text>
</g>
<!-- S8&#45;&gt;S11 -->
<g id="edge15" class="edge">
<title>S8-&gt;S11</title>
<path fill="none" stroke="black" d="M793.09,-57.18C799.59,-52.56 807.33,-47.67 814.93,-44.26 821.14,-41.48 827.99,-39.18 834.71,-37.29"></path>
<polygon fill="black" stroke="black" points="835.44,-40.72 844.28,-34.87 833.73,-33.93 835.44,-40.72"></polygon>
<text text-anchor="middle" x="821.37" y="-49.26" font-family="Times,serif" font-size="14.00">@</text>
</g>
<!-- S9&#45;&gt;S8 -->
<g id="edge16" class="edge">
<title>S9-&gt;S8</title>
<path fill="none" stroke="black" d="M710.58,-47.79C720.62,-51.28 733.12,-55.62 744.4,-59.54"></path>
<polygon fill="black" stroke="black" points="743.12,-62.8 753.72,-62.78 745.42,-56.19 743.12,-62.8"></polygon>
<text text-anchor="middle" x="732.96" y="-61.26" font-family="Times,serif" font-size="14.00">b</text>
</g>
<!-- S10&#45;&gt;S8 -->
<g id="edge17" class="edge">
<title>S10-&gt;S8</title>
<path fill="none" stroke="black" d="M854.43,-85.57C847.11,-78.37 837.88,-71.05 827.82,-67.26 821.53,-64.9 814.5,-64.17 807.71,-64.32"></path>
<polygon fill="black" stroke="black" points="807.86,-60.8 798.2,-65.15 808.46,-67.77 807.86,-60.8"></polygon>
<text text-anchor="middle" x="821.37" y="-72.26" font-family="Times,serif" font-size="14.00">b</text>
</g>
<!-- S12 -->
<g id="node14" class="node">
<title>S12</title>
<ellipse fill="none" stroke="black" cx="966.23" cy="-30.06" rx="26.06" ry="26.06"></ellipse>
<text text-anchor="middle" x="966.23" y="-25.86" font-family="Times,serif" font-size="14.00">S12</text>
</g>
<!-- S11&#45;&gt;S12 -->
<g id="edge18" class="edge">
<title>S11-&gt;S12</title>
<path fill="none" stroke="black" d="M898.12,-30.06C907.41,-30.06 918.13,-30.06 928.24,-30.06"></path>
<polygon fill="black" stroke="black" points="928.19,-33.56 938.19,-30.06 928.19,-26.56 928.19,-33.56"></polygon>
<text text-anchor="middle" x="919.06" y="-34.26" font-family="Times,serif" font-size="14.00">c</text>
</g>
<!-- S13 -->
<g id="node15" class="node">
<title>S13</title>
<ellipse fill="none" stroke="black" cx="1061.36" cy="-30.06" rx="26.06" ry="26.06"></ellipse>
<text text-anchor="middle" x="1061.36" y="-25.86" font-family="Times,serif" font-size="14.00">S13</text>
</g>
<!-- S12&#45;&gt;S13 -->
<g id="edge19" class="edge">
<title>S12-&gt;S13</title>
<path fill="none" stroke="black" d="M992.67,-30.06C1002.22,-30.06 1013.27,-30.06 1023.64,-30.06"></path>
<polygon fill="black" stroke="black" points="1023.43,-33.56 1033.42,-30.06 1023.42,-26.56 1023.43,-33.56"></polygon>
<text text-anchor="middle" x="1013.79" y="-34.26" font-family="Times,serif" font-size="14.00">u</text>
</g>
<!-- S14 -->
<g id="node16" class="node">
<title>S14</title>
<ellipse fill="none" stroke="black" cx="1155.7" cy="-30.06" rx="26.06" ry="26.06"></ellipse>
<text text-anchor="middle" x="1155.7" y="-25.86" font-family="Times,serif" font-size="14.00">S14</text>
</g>
<!-- S13&#45;&gt;S14 -->
<g id="edge20" class="edge">
<title>S13-&gt;S14</title>
<path fill="none" stroke="black" d="M1087.59,-30.06C1096.88,-30.06 1107.6,-30.06 1117.71,-30.06"></path>
<polygon fill="black" stroke="black" points="1117.66,-33.56 1127.66,-30.06 1117.66,-26.56 1117.66,-33.56"></polygon>
<text text-anchor="middle" x="1108.53" y="-34.26" font-family="Times,serif" font-size="14.00">c</text>
</g>
<!-- S15 -->
<g id="node17" class="node">
<title>S15</title>
<ellipse fill="none" stroke="black" cx="1247.33" cy="-30.06" rx="26.06" ry="26.06"></ellipse>
<text text-anchor="middle" x="1247.33" y="-25.86" font-family="Times,serif" font-size="14.00">S15</text>
</g>
<!-- S14&#45;&gt;S15 -->
<g id="edge21" class="edge">
<title>S14-&gt;S15</title>
<path fill="none" stroke="black" d="M1182.14,-30.06C1190.66,-30.06 1200.33,-30.06 1209.53,-30.06"></path>
<polygon fill="black" stroke="black" points="1209.3,-33.56 1219.3,-30.06 1209.3,-26.56 1209.3,-33.56"></polygon>
<text text-anchor="middle" x="1201.51" y="-34.26" font-family="Times,serif" font-size="14.00">.</text>
</g>
<!-- S16 -->
<g id="node18" class="node">
<title>S16</title>
<ellipse fill="none" stroke="black" cx="1341.67" cy="-30.06" rx="26.06" ry="26.06"></ellipse>
<text text-anchor="middle" x="1341.67" y="-25.86" font-family="Times,serif" font-size="14.00">S16</text>
</g>
<!-- S15&#45;&gt;S16 -->
<g id="edge22" class="edge">
<title>S15-&gt;S16</title>
<path fill="none" stroke="black" d="M1273.56,-30.06C1282.85,-30.06 1293.57,-30.06 1303.68,-30.06"></path>
<polygon fill="black" stroke="black" points="1303.63,-33.56 1313.63,-30.06 1303.63,-26.56 1303.63,-33.56"></polygon>
<text text-anchor="middle" x="1294.5" y="-34.26" font-family="Times,serif" font-size="14.00">e</text>
</g>
<!-- S17 -->
<g id="node19" class="node">
<title>S17</title>
<ellipse fill="none" stroke="black" cx="1436.8" cy="-30.06" rx="26.06" ry="26.06"></ellipse>
<text text-anchor="middle" x="1436.8" y="-25.86" font-family="Times,serif" font-size="14.00">S17</text>
</g>
<!-- S16&#45;&gt;S17 -->
<g id="edge23" class="edge">
<title>S16-&gt;S17</title>
<path fill="none" stroke="black" d="M1368.12,-30.06C1377.66,-30.06 1388.71,-30.06 1399.08,-30.06"></path>
<polygon fill="black" stroke="black" points="1398.87,-33.56 1408.87,-30.06 1398.87,-26.56 1398.87,-33.56"></polygon>
<text text-anchor="middle" x="1389.23" y="-34.26" font-family="Times,serif" font-size="14.00">d</text>
</g>
<!-- S18 -->
<g id="node20" class="node">
<title>S18</title>
<ellipse fill="none" stroke="black" cx="1531.93" cy="-30.06" rx="26.06" ry="26.06"></ellipse>
<text text-anchor="middle" x="1531.93" y="-25.86" font-family="Times,serif" font-size="14.00">S18</text>
</g>
<!-- S17&#45;&gt;S18 -->
<g id="edge24" class="edge">
<title>S17-&gt;S18</title>
<path fill="none" stroke="black" d="M1463.24,-30.06C1472.79,-30.06 1483.84,-30.06 1494.21,-30.06"></path>
<polygon fill="black" stroke="black" points="1493.99,-33.56 1503.99,-30.06 1493.99,-26.56 1493.99,-33.56"></polygon>
<text text-anchor="middle" x="1484.36" y="-34.26" font-family="Times,serif" font-size="14.00">u</text>
</g>
<!-- S19 -->
<g id="node21" class="node">
<title>S19</title>
<ellipse fill="none" stroke="black" cx="1623.55" cy="-30.06" rx="26.06" ry="26.06"></ellipse>
<text text-anchor="middle" x="1623.55" y="-25.86" font-family="Times,serif" font-size="14.00">S19</text>
</g>
<!-- S18&#45;&gt;S19 -->
<g id="edge25" class="edge">
<title>S18-&gt;S19</title>
<path fill="none" stroke="black" d="M1558.37,-30.06C1566.88,-30.06 1576.55,-30.06 1585.76,-30.06"></path>
<polygon fill="black" stroke="black" points="1585.53,-33.56 1595.53,-30.06 1585.53,-26.56 1585.53,-33.56"></polygon>
<text text-anchor="middle" x="1577.74" y="-34.26" font-family="Times,serif" font-size="14.00">.</text>
</g>
<!-- S20 -->
<g id="node22" class="node">
<title>S20</title>
<ellipse fill="none" stroke="black" cx="1717.9" cy="-30.06" rx="26.06" ry="26.06"></ellipse>
<text text-anchor="middle" x="1717.9" y="-25.86" font-family="Times,serif" font-size="14.00">S20</text>
</g>
<!-- S19&#45;&gt;S20 -->
<g id="edge26" class="edge">
<title>S19-&gt;S20</title>
<path fill="none" stroke="black" d="M1649.79,-30.06C1659.07,-30.06 1669.8,-30.06 1679.91,-30.06"></path>
<polygon fill="black" stroke="black" points="1679.86,-33.56 1689.86,-30.06 1679.86,-26.56 1679.86,-33.56"></polygon>
<text text-anchor="middle" x="1670.72" y="-34.26" font-family="Times,serif" font-size="14.00">c</text>
</g>
<!-- S20&#45;&gt;S21 -->
<g id="edge27" class="edge">
<title>S20-&gt;S21</title>
<path fill="none" stroke="black" d="M1744.42,-30.06C1753.81,-30.06 1764.7,-30.06 1775.11,-30.06"></path>
<polygon fill="black" stroke="black" points="1775.04,-33.56 1785.04,-30.06 1775.04,-26.56 1775.04,-33.56"></polygon>
<text text-anchor="middle" x="1765.46" y="-34.26" font-family="Times,serif" font-size="14.00">o</text>
</g>
</g>
</svg>